<svg width="24" height="24" viewBox="0 0 24 24" fill="none" xmlns="http://www.w3.org/2000/svg">
<g clip-path="url(#clip0_15_1625)">
<path d="M5.11475 20.845H4.42132C3.06447 20.845 1.96191 19.7414 1.96191 18.3856V4.07525C1.96191 2.71859 3.06554 1.61585 4.42132 1.61585H15.1539C16.5108 1.61585 17.6133 2.71947 17.6133 4.07525V20.845C17.6133 20.845 5.10978 20.7694 5.11475 20.845Z" fill="#FF9900"/>
<path d="M17.3709 23.5905H8.5215C7.45002 23.5905 6.58203 22.7225 6.58203 21.6509V7.91673C6.58203 6.84507 7.45002 5.97708 8.5215 5.97708H20.4016C21.4731 5.97708 22.3411 6.84507 22.3411 7.91673V21.6509C22.3411 22.7225 21.4731 23.5905 20.4016 23.5905H17.3709Z" fill="#ECEFF1"/>
<path d="M20.0383 5.57081H8.88556C7.41436 5.57081 6.21875 6.76642 6.21875 8.23763V21.3298C6.21875 22.801 7.41436 23.9968 8.88556 23.9968H20.0383C21.5095 23.9968 22.7051 22.801 22.7051 21.3298V8.23763C22.7051 6.76642 21.5095 5.57081 20.0383 5.57081ZM8.88556 22.5421C8.21735 22.5421 7.67344 21.998 7.67344 21.3298V8.23763C7.67344 7.56941 8.21735 7.0255 8.88556 7.0255H20.0383C20.7065 7.0255 21.2504 7.56941 21.2504 8.23763V21.3298C21.2504 21.998 20.7065 22.5421 20.0383 22.5421H8.88556Z" fill="black"/>
<path d="M15.6746 0.721773H4.03711C2.5659 0.721773 1.37012 1.91756 1.37012 3.38876V18.9054C1.37012 20.3766 2.5659 21.5724 4.03711 21.5724H4.52189C4.92338 21.5724 5.24923 21.2465 5.24923 20.845C5.24923 20.4435 4.92338 20.1177 4.52189 20.1177H4.03711C3.3689 20.1177 2.82481 19.5736 2.82481 18.9054V3.38876C2.82481 2.72055 3.3689 2.17646 4.03711 2.17646H15.6746C16.3428 2.17646 16.8868 2.72055 16.8868 3.38876V3.87354C16.8868 4.27504 17.2126 4.60089 17.6141 4.60089C18.0156 4.60089 18.3414 4.27504 18.3414 3.87354V3.38876C18.3414 1.91756 17.1458 0.721773 15.6746 0.721773Z" fill="black"/>
<path d="M18.0985 15.7536H10.825C10.4235 15.7536 10.0977 16.0795 10.0977 16.481C10.0977 16.8825 10.4235 17.2083 10.825 17.2083H18.0985C18.4999 17.2083 18.8258 16.8825 18.8258 16.481C18.8258 16.0795 18.4999 15.7536 18.0985 15.7536Z" fill="black"/>
<path d="M18.0985 12.8443H10.825C10.4235 12.8443 10.0977 13.1701 10.0977 13.5716C10.0977 13.9731 10.4235 14.299 10.825 14.299H18.0985C18.4999 14.299 18.8258 13.9731 18.8258 13.5716C18.8258 13.1701 18.4999 12.8443 18.0985 12.8443Z" fill="black"/>
<path d="M18.0985 9.9349H10.825C10.4235 9.9349 10.0977 10.2607 10.0977 10.6622C10.0977 11.0637 10.4235 11.3896 10.825 11.3896H18.0985C18.4999 11.3896 18.8258 11.0637 18.8258 10.6622C18.8258 10.2607 18.4999 9.9349 18.0985 9.9349Z" fill="black"/>
</g>
<defs>
<clipPath id="clip0_15_1625">
<rect width="23.275" height="23.275" fill="white" transform="matrix(1 0 0 -1 0.415039 23.9968)"/>
</clipPath>
</defs>
</svg>
