<svg width="16" height="15" viewBox="0 0 16 15" fill="none" xmlns="http://www.w3.org/2000/svg">
<path d="M14.7013 12.14L2.94579 0.384518C2.4331 -0.128173 1.6019 -0.128173 1.09001 0.384518L0.470455 1.00311C-0.0422351 1.51596 -0.0422351 2.34716 0.470455 2.85905L12.226 14.6146C12.7388 15.1273 13.57 15.1273 14.0819 14.6146L14.7005 13.996C15.2142 13.4841 15.2142 12.6527 14.7013 12.14Z" fill="#F44336"/>
<path d="M12.226 0.385252L0.470455 12.1408C-0.0422351 12.6535 -0.0422351 13.4848 0.470455 13.9967L1.08905 14.6153C1.6019 15.128 2.4331 15.128 2.94499 14.6153L14.7013 2.86059C15.2142 2.3479 15.2142 1.5167 14.7013 1.00481L14.0827 0.386214C13.57 -0.127438 12.7388 -0.127438 12.226 0.385252Z" fill="#F44336"/>
</svg>
