<svg width="14" height="10" viewBox="0 0 14 10" fill="none" xmlns="http://www.w3.org/2000/svg">
<path fill-rule="evenodd" clip-rule="evenodd" d="M2.53698 0.833313H11.3957C12.3369 0.833313 13.0567 1.37498 13.0567 2.08331V6.24998C13.0567 6.95831 12.3369 7.49998 11.3957 7.49998H7.51998V8.33331H9.18098C9.51318 8.33331 9.73465 8.49998 9.73465 8.74998C9.73465 8.99998 9.51318 9.16665 9.18098 9.16665H4.75165C4.41945 9.16665 4.19798 8.99998 4.19798 8.74998C4.19798 8.49998 4.41945 8.33331 4.75165 8.33331H6.41265V7.49998H2.53698C1.59574 7.49998 0.875977 6.95831 0.875977 6.24998V2.08331C0.875977 1.37498 1.59574 0.833313 2.53698 0.833313ZM11.3949 6.66665C11.7271 6.66665 11.9486 6.49998 11.9486 6.24998V2.08331C11.9486 1.83331 11.7271 1.66665 11.3949 1.66665H2.53625C2.20405 1.66665 1.98258 1.83331 1.98258 2.08331V6.24998C1.98258 6.49998 2.20405 6.66665 2.53625 6.66665H11.3949Z" fill="black"/>
<mask id="mask0_15_1688" style="mask-type:luminance" maskUnits="userSpaceOnUse" x="0" y="0" width="14" height="10">
<path fill-rule="evenodd" clip-rule="evenodd" d="M2.53698 0.833313H11.3957C12.3369 0.833313 13.0567 1.37498 13.0567 2.08331V6.24998C13.0567 6.95831 12.3369 7.49998 11.3957 7.49998H7.51998V8.33331H9.18098C9.51318 8.33331 9.73465 8.49998 9.73465 8.74998C9.73465 8.99998 9.51318 9.16665 9.18098 9.16665H4.75165C4.41945 9.16665 4.19798 8.99998 4.19798 8.74998C4.19798 8.49998 4.41945 8.33331 4.75165 8.33331H6.41265V7.49998H2.53698C1.59574 7.49998 0.875977 6.95831 0.875977 6.24998V2.08331C0.875977 1.37498 1.59574 0.833313 2.53698 0.833313ZM11.3949 6.66665C11.7271 6.66665 11.9486 6.49998 11.9486 6.24998V2.08331C11.9486 1.83331 11.7271 1.66665 11.3949 1.66665H2.53625C2.20405 1.66665 1.98258 1.83331 1.98258 2.08331V6.24998C1.98258 6.49998 2.20405 6.66665 2.53625 6.66665H11.3949Z" fill="white"/>
</mask>
<g mask="url(#mask0_15_1688)">
<rect x="0.321289" width="13.288" height="10" fill="#7367F0"/>
</g>
</svg>
