<svg width="24" height="24" viewBox="0 0 24 24" fill="none" xmlns="http://www.w3.org/2000/svg">
<path fill-rule="evenodd" clip-rule="evenodd" d="M21.6 8.21679L12.6 1.22474C12.2 0.925081 11.7 0.925081 11.4 1.22474L2.4 8.21679C2.1 8.41657 2 8.71623 2 9.01589V20.0034C2 21.7015 3.3 23 5 23H19C20.7 23 22 21.7015 22 20.0034V9.01589C22 8.71623 21.9 8.41657 21.6 8.21679ZM14 21.0023H9.99996V13.0113H14V21.0023ZM19 21.0023C19.6 21.0023 20 20.6027 20 20.0034V9.51532L12 3.32236L3.99996 9.51532V20.0034C3.99996 20.6027 4.39996 21.0023 4.99996 21.0023H7.99996V12.0125C7.99996 11.4132 8.39996 11.0136 8.99996 11.0136H15C15.6 11.0136 16 11.4132 16 12.0125V21.0023H19Z" fill="black"/>
<mask id="mask0_87_103" style="mask-type:luminance" maskUnits="userSpaceOnUse" x="2" y="1" width="20" height="22">
<path fill-rule="evenodd" clip-rule="evenodd" d="M21.6 8.21679L12.6 1.22474C12.2 0.925081 11.7 0.925081 11.4 1.22474L2.4 8.21679C2.1 8.41657 2 8.71623 2 9.01589V20.0034C2 21.7015 3.3 23 5 23H19C20.7 23 22 21.7015 22 20.0034V9.01589C22 8.71623 21.9 8.41657 21.6 8.21679ZM14 21.0023H9.99996V13.0113H14V21.0023ZM19 21.0023C19.6 21.0023 20 20.6027 20 20.0034V9.51532L12 3.32236L3.99996 9.51532V20.0034C3.99996 20.6027 4.39996 21.0023 4.99996 21.0023H7.99996V12.0125C7.99996 11.4132 8.39996 11.0136 8.99996 11.0136H15C15.6 11.0136 16 11.4132 16 12.0125V21.0023H19Z" fill="white"/>
</mask>
<g mask="url(#mask0_87_103)">
<rect width="24" height="24" fill="white"/>
</g>
</svg>
