<svg width="8" height="10" viewBox="0 0 8 10" fill="none" xmlns="http://www.w3.org/2000/svg">
<path d="M0.994 4.974V6.178H2.394C2.436 6.346 2.45 6.528 2.45 6.71C2.45 7.494 1.862 8.278 0.91 8.67V10H5.628C7.084 10 7.952 8.95 7.952 7.494L6.636 7.298C6.636 8.068 6.244 8.782 5.292 8.782H2.45C3.29 8.348 3.78 7.536 3.78 6.556C3.78 6.43 3.766 6.304 3.752 6.178H6.104V4.974H3.388C3.15 4.428 2.926 3.91 2.926 3.322C2.926 2.412 3.612 1.922 4.354 1.922C5.208 1.922 5.824 2.412 5.838 3.448L7.21 3.21C7.154 2.09 6.482 0.717999 4.326 0.717999C2.772 0.717999 1.554 1.824 1.554 3.322C1.554 3.98 1.764 4.498 1.974 4.974H0.994Z" fill="#3E4042"/>
</svg>
