<svg width="19" height="23" viewBox="0 0 19 23" fill="none" xmlns="http://www.w3.org/2000/svg">
<path fill-rule="evenodd" clip-rule="evenodd" d="M18.6667 6.76038C18.6927 6.81246 18.7188 6.86454 18.7708 6.91663C18.875 7.02079 18.875 7.22913 18.875 7.33329V19.8333C18.875 21.6041 17.5208 22.9583 15.75 22.9583H3.25C1.47917 22.9583 0.125 21.6041 0.125 19.8333V3.16663C0.125 1.39579 1.47917 0.041626 3.25 0.041626H11.5833C11.6875 0.041626 11.8958 0.041626 12 0.145793C12.1042 0.145793 12.2083 0.249959 12.3125 0.354126L18.5625 6.60413C18.6146 6.65621 18.6406 6.70829 18.6667 6.76038ZM15.3333 6.29165L12.625 3.58332V6.29165H15.3333ZM15.75 20.875H3.24997C2.62497 20.875 2.2083 20.4583 2.2083 19.8333V3.16663C2.2083 2.54163 2.62497 2.12496 3.24997 2.12496H10.5416V7.33329C10.5416 7.95829 10.9583 8.37496 11.5833 8.37496H16.7916V19.8333C16.7916 20.4583 16.375 20.875 15.75 20.875ZM13.6667 13.5833C14.2917 13.5833 14.7084 13.1666 14.7084 12.5416C14.7084 11.9166 14.2917 11.5 13.6667 11.5H5.33336C4.70836 11.5 4.2917 11.9166 4.2917 12.5416C4.2917 13.1666 4.70836 13.5833 5.33336 13.5833H13.6667ZM14.7084 16.7083C14.7084 17.3333 14.2917 17.75 13.6667 17.75H5.33336C4.70836 17.75 4.2917 17.3333 4.2917 16.7083C4.2917 16.0833 4.70836 15.6666 5.33336 15.6666H13.6667C14.2917 15.6666 14.7084 16.0833 14.7084 16.7083ZM5.33336 7.33329C4.70836 7.33329 4.2917 7.74996 4.2917 8.37496C4.2917 8.99996 4.70836 9.41663 5.33336 9.41663H7.4167C8.0417 9.41663 8.45836 8.99996 8.45836 8.37496C8.45836 7.74996 8.0417 7.33329 7.4167 7.33329H5.33336Z" fill="black"/>
</svg>
