<svg width="24" height="24" viewBox="0 0 24 24" fill="none" xmlns="http://www.w3.org/2000/svg">
<g opacity="0.9">
<path fill-rule="evenodd" clip-rule="evenodd" d="M7.00004 7.00001C7.00004 4.20001 9.20004 2.00001 12 2.00001C14.8 2.00001 17 4.20001 17 7.00001C17 9.80001 14.8 12 12 12C9.20004 12 7.00004 9.80001 7.00004 7.00001ZM21 19V21C21 21.6 20.6 22 20 22C19.4 22 19 21.6 19 21V19C19 17.3 17.7 16 16 16H8C6.3 16 5 17.3 5 19V21C5 21.6 4.6 22 4 22C3.4 22 3 21.6 3 21V19C3 16.2 5.2 14 8 14H16C18.8 14 21 16.2 21 19ZM12 10C10.3 10 9 8.70001 9 7.00001C9 5.30001 10.3 4.00001 12 4.00001C13.7 4.00001 15 5.30001 15 7.00001C15 8.70001 13.7 10 12 10Z" fill="white"/>
<mask id="mask0_34_803" style="mask-type:luminance" maskUnits="userSpaceOnUse" x="3" y="2" width="18" height="20">
<path fill-rule="evenodd" clip-rule="evenodd" d="M7.00004 7.00001C7.00004 4.20001 9.20004 2.00001 12 2.00001C14.8 2.00001 17 4.20001 17 7.00001C17 9.80001 14.8 12 12 12C9.20004 12 7.00004 9.80001 7.00004 7.00001ZM21 19V21C21 21.6 20.6 22 20 22C19.4 22 19 21.6 19 21V19C19 17.3 17.7 16 16 16H8C6.3 16 5 17.3 5 19V21C5 21.6 4.6 22 4 22C3.4 22 3 21.6 3 21V19C3 16.2 5.2 14 8 14H16C18.8 14 21 16.2 21 19ZM12 10C10.3 10 9 8.70001 9 7.00001C9 5.30001 10.3 4.00001 12 4.00001C13.7 4.00001 15 5.30001 15 7.00001C15 8.70001 13.7 10 12 10Z" fill="white"/>
</mask>
<g mask="url(#mask0_34_803)">
<rect width="24" height="24" fill="white"/>
</g>
</g>
</svg>
