<svg width="18" height="20" viewBox="0 0 18 20" fill="none" xmlns="http://www.w3.org/2000/svg">
<rect width="18" height="20" fill="#E5E5E5"/>
<g clip-path="url(#clip0_0_1)">
<rect width="1450" height="1050" transform="translate(-37 -319)" fill="#EDEDED"/>
<rect x="-37" y="-319" width="247" height="1050" fill="#FF9900"/>
<g opacity="0.9">
<path fill-rule="evenodd" clip-rule="evenodd" d="M4.00004 5C4.00004 2.2 6.20004 0 9.00004 0C11.8 0 14 2.2 14 5C14 7.8 11.8 10 9.00004 10C6.20004 10 4.00004 7.8 4.00004 5ZM18 17V19C18 19.6 17.6 20 17 20C16.4 20 16 19.6 16 19V17C16 15.3 14.7 14 13 14H5C3.3 14 2 15.3 2 17V19C2 19.6 1.6 20 1 20C0.4 20 0 19.6 0 19V17C0 14.2 2.2 12 5 12H13C15.8 12 18 14.2 18 17ZM9 8C7.3 8 6 6.7 6 5C6 3.3 7.3 2 9 2C10.7 2 12 3.3 12 5C12 6.7 10.7 8 9 8Z" fill="white"/>
<mask id="mask0_0_1" style="mask-type:luminance" maskUnits="userSpaceOnUse" x="0" y="0" width="18" height="20">
<path fill-rule="evenodd" clip-rule="evenodd" d="M4.00004 5C4.00004 2.2 6.20004 0 9.00004 0C11.8 0 14 2.2 14 5C14 7.8 11.8 10 9.00004 10C6.20004 10 4.00004 7.8 4.00004 5ZM18 17V19C18 19.6 17.6 20 17 20C16.4 20 16 19.6 16 19V17C16 15.3 14.7 14 13 14H5C3.3 14 2 15.3 2 17V19C2 19.6 1.6 20 1 20C0.4 20 0 19.6 0 19V17C0 14.2 2.2 12 5 12H13C15.8 12 18 14.2 18 17ZM9 8C7.3 8 6 6.7 6 5C6 3.3 7.3 2 9 2C10.7 2 12 3.3 12 5C12 6.7 10.7 8 9 8Z" fill="white"/>
</mask>
<g mask="url(#mask0_0_1)">
<rect x="-3" y="-2" width="24" height="24" fill="white"/>
</g>
</g>
</g>
<defs>
<clipPath id="clip0_0_1">
<rect width="1450" height="1050" fill="white" transform="translate(-37 -319)"/>
</clipPath>
</defs>
</svg>
