<svg width="15" height="13" viewBox="0 0 15 13" fill="none" xmlns="http://www.w3.org/2000/svg">
<g opacity="0.2">
<path d="M14.4668 5.42936C14.3647 5.16364 14.0935 4.96973 13.768 4.92921L10.0357 4.46958L8.36615 1.60197C8.21985 1.35078 7.91935 1.19208 7.58952 1.19208C7.25969 1.19208 6.95919 1.35078 6.81289 1.60197L5.14431 4.46958L1.41142 4.92921C1.08488 4.96973 0.814035 5.16336 0.712549 5.42936C0.610404 5.69508 0.695086 5.98678 0.931666 6.18209L3.63257 8.41459L2.99532 11.5672C2.93996 11.8427 3.07341 12.121 3.33997 12.2853C3.48989 12.3786 3.66815 12.4255 3.84839 12.4255C3.98612 12.4255 4.12451 12.3976 4.25104 12.3412L7.58952 10.8527L10.928 12.3412C11.0545 12.3976 11.1929 12.4255 11.3307 12.4255C11.5099 12.4255 11.6891 12.3786 11.8397 12.2853C12.1063 12.1207 12.2397 11.8424 12.1844 11.5672L11.5468 8.41431L14.2477 6.18181C14.4833 5.98734 14.5683 5.69508 14.4668 5.42936Z" fill="#231F20"/>
</g>
<path fill-rule="evenodd" clip-rule="evenodd" d="M14.4677 4.51708C14.3655 4.2541 14.0944 4.06218 13.7688 4.02209L10.0366 3.56719L8.36706 0.729157C8.22076 0.480556 7.92026 0.323486 7.59044 0.323486C7.26061 0.323486 6.96011 0.480556 6.81381 0.729157L5.14525 3.56719L1.41239 4.02209C1.08586 4.06218 0.81501 4.25382 0.713525 4.51708C0.611381 4.78006 0.696062 5.06876 0.93264 5.26205L3.63352 7.47153L2.99627 10.5916C2.94092 10.8643 3.07436 11.1397 3.34093 11.3023C3.49085 11.3947 3.6691 11.4411 3.84934 11.4411C3.98707 11.4411 4.12546 11.4135 4.25198 11.3576L7.59044 9.88454L10.9289 11.3576C11.0554 11.4135 11.1938 11.4411 11.3315 11.4411C11.5108 11.4411 11.69 11.3947 11.8406 11.3023C12.1072 11.1394 12.2406 10.864 12.1853 10.5916L11.5477 7.47126L14.2486 5.26177C14.4842 5.06931 14.5692 4.78006 14.4677 4.51708Z" fill="#FFAF63"/>
</svg>
